<?xml version="1.0" standalone="no"?>
<!DOCTYPE svg PUBLIC "-//W3C//DTD SVG 20010904//EN"
 "http://www.w3.org/TR/2001/REC-SVG-20010904/DTD/svg10.dtd">
<svg version="1.0" xmlns="http://www.w3.org/2000/svg"
 width="1014.000000pt" height="676.000000pt" viewBox="0 0 1014.000000 676.000000"
 preserveAspectRatio="xMidYMid meet">

<g transform="translate(0.000000,676.000000) scale(0.100000,-0.100000)"
fill="#000000" stroke="none">
<path d="M4865 6734 c-493 -40 -868 -141 -1290 -349 -555 -273 -1017 -692
-1358 -1232 -91 -145 -234 -437 -297 -605 -93 -252 -159 -536 -192 -823 -16
-143 -16 -548 1 -695 107 -947 572 -1766 1326 -2334 472 -356 1010 -573 1620
-652 160 -21 578 -24 740 -6 435 50 824 166 1190 355 926 481 1570 1341 1765
2362 65 343 74 749 25 1100 -52 359 -151 678 -315 1010 -107 216 -189 350
-332 538 -549 730 -1360 1197 -2278 1312 -121 15 -503 27 -605 19z m610 -209
c850 -118 1588 -542 2105 -1210 563 -726 783 -1680 594 -2579 -167 -797 -628
-1493 -1298 -1960 -414 -289 -873 -466 -1407 -543 -173 -24 -620 -24 -798 1
-392 55 -729 160 -1055 329 -721 374 -1281 1021 -1542 1781 -109 317 -160 599
-171 936 -17 559 102 1078 358 1569 309 592 814 1083 1417 1379 313 155 694
265 1032 301 58 6 121 13 140 15 79 9 521 -4 625 -19z"/>
<path d="M4790 6399 c-1018 -94 -1940 -718 -2411 -1633 -217 -422 -322 -829
-336 -1311 -30 -1037 480 -2015 1358 -2600 518 -346 1128 -521 1753 -502 287
9 496 41 756 116 533 154 1057 484 1415 890 416 472 662 1007 752 1636 27 188
24 613 -6 805 -105 679 -387 1243 -861 1718 -506 508 -1164 816 -1880 881
-134 13 -403 12 -540 0z m474 -250 c12 -63 6 -294 -9 -346 -29 -97 -115 -140
-261 -131 -89 6 -143 36 -174 99 -18 35 -22 65 -27 220 l-6 179 80 0 80 0 6
-172 c7 -163 8 -174 29 -191 27 -23 86 -17 105 10 9 12 13 67 13 190 l0 173
79 0 79 0 6 -31z m595 -90 c113 -33 208 -63 210 -65 2 -2 -4 -31 -14 -65 -20
-67 -12 -64 -108 -34 -37 11 -49 11 -52 2 -3 -7 -25 -81 -50 -166 -25 -85 -47
-156 -49 -158 -5 -6 -156 40 -156 48 0 3 22 81 48 172 l49 166 -64 17 c-35 9
-66 20 -68 24 -5 8 35 120 43 120 3 0 98 -27 211 -61z m-1494 -146 c60 -76
133 -168 162 -205 l53 -66 -78 -26 -77 -27 -21 27 -21 26 -72 -23 c-70 -23
-71 -23 -71 -58 0 -35 -1 -36 -68 -58 -37 -13 -71 -23 -76 -23 -4 0 -6 117 -5
260 l3 260 76 25 c41 13 78 24 81 25 3 0 54 -62 114 -137z m2140 -128 c30 -19
55 -38 55 -42 0 -5 -18 -35 -40 -68 -22 -33 -40 -63 -40 -66 0 -6 105 -79 114
-79 2 0 23 29 46 65 23 36 45 65 48 65 10 0 132 -82 132 -88 0 -15 -264 -402
-274 -401 -16 0 -119 72 -123 85 -2 6 17 41 42 78 25 36 45 70 45 74 -1 7
-103 72 -114 72 -3 0 -27 -31 -52 -70 -26 -38 -50 -70 -54 -70 -4 0 -35 18
-69 40 -43 28 -61 45 -57 56 3 8 63 100 133 205 81 121 132 188 140 185 7 -3
38 -21 68 -41z m-2840 -119 c132 -61 198 -228 137 -346 -33 -62 -64 -93 -129
-125 -78 -40 -160 -41 -225 -3 -130 77 -181 224 -119 346 25 49 108 125 153
139 58 19 129 15 183 -11z m1579 -256 l52 -49 41 41 c25 25 46 38 53 33 8 -5
-2 -21 -31 -51 l-43 -44 109 -110 110 -110 111 111 112 111 34 -11 c20 -7 72
-49 133 -111 l99 -100 36 35 c24 23 39 32 49 26 10 -7 5 -17 -25 -45 l-39 -36
113 -112 112 -113 59 59 c39 39 61 54 66 46 5 -7 -14 -34 -49 -69 l-56 -56
113 -113 112 -112 57 56 c35 35 60 54 68 49 8 -5 -7 -26 -46 -66 l-59 -59 112
-111 111 -112 37 42 c27 29 41 39 49 31 7 -7 -2 -22 -29 -50 l-39 -40 122
-123 c67 -68 122 -132 122 -141 0 -10 -5 -14 -11 -11 -5 4 -61 -43 -122 -104
l-112 -110 110 -111 c60 -60 114 -110 120 -110 6 0 31 20 55 45 24 25 48 45
52 45 20 0 4 -28 -39 -72 l-47 -48 62 -63 c56 -56 75 -87 55 -87 -4 0 -37 29
-73 65 l-65 65 -110 -110 -110 -110 110 -110 110 -110 65 65 c36 36 69 65 73
65 20 0 1 -31 -55 -87 l-62 -63 48 -49 c28 -28 46 -56 44 -65 -2 -13 -17 -4
-58 38 l-56 56 -114 -115 -115 -115 112 -111 c101 -100 114 -110 129 -98 16
13 17 12 11 -12 -4 -14 -60 -78 -127 -144 l-120 -119 40 -41 c37 -37 51 -65
33 -65 -4 0 -27 19 -50 42 l-43 43 -112 -113 -113 -112 53 -53 c47 -48 64 -77
45 -77 -4 0 -32 25 -63 55 l-55 55 -113 -113 -113 -113 56 -51 c30 -28 55 -56
55 -62 0 -23 -26 -9 -77 41 l-53 53 -112 -113 -113 -112 44 -44 c55 -56 37
-71 -21 -17 l-43 40 -121 -120 c-66 -65 -128 -119 -137 -119 -9 0 -14 6 -12
13 3 6 -44 62 -105 122 l-110 110 -112 -112 -113 -113 55 -55 c43 -44 50 -55
34 -55 -11 0 -40 20 -64 45 l-44 45 -61 -60 c-54 -54 -85 -73 -85 -53 0 4 28
36 62 70 l63 63 -110 110 -110 110 -107 -107 c-60 -59 -108 -112 -108 -118 0
-5 25 -35 55 -65 30 -29 55 -57 55 -62 0 -16 -38 7 -87 56 l-53 50 -43 -42
c-23 -23 -51 -42 -62 -42 -15 0 -7 12 33 53 l52 52 -115 115 -115 115 -114
-114 c-99 -98 -117 -112 -137 -106 -13 4 -72 55 -131 113 l-108 106 -34 -33
c-48 -47 -69 -30 -22 18 l36 37 -110 109 -110 109 -55 -54 c-37 -36 -58 -51
-65 -44 -7 7 8 28 45 64 l55 55 -112 112 -113 113 -51 -51 c-32 -32 -57 -49
-64 -44 -8 5 5 25 41 61 l54 54 -113 113 -113 112 -28 -32 c-16 -18 -31 -33
-35 -33 -16 0 -3 39 19 60 l26 24 -89 91 c-123 126 -145 180 -26 65 49 -47 98
-96 111 -110 l22 -25 113 113 113 112 -112 112 -113 113 -108 -108 c-59 -59
-111 -107 -115 -107 -23 0 4 36 98 130 l105 105 -110 110 -110 109 -39 -38
c-27 -26 -41 -34 -46 -26 -5 7 7 27 29 48 l36 36 -41 42 c-23 23 -39 49 -37
58 2 13 14 6 51 -31 l48 -47 112 112 112 112 -112 112 -113 113 -50 -50 c-39
-38 -50 -45 -50 -30 0 11 18 38 40 60 l40 41 -30 29 c-16 16 -30 38 -30 49 0
17 6 14 40 -19 l40 -39 113 112 112 112 -103 103 c-91 91 -118 127 -95 127 4
0 55 -47 113 -105 l105 -105 110 110 110 110 -113 112 -112 113 -100 -100
c-55 -55 -100 -96 -100 -92 0 22 36 69 104 137 l76 74 -26 27 c-37 39 -21 59
17 23 l30 -28 112 112 112 112 -47 47 c-65 68 -51 90 16 24 l51 -51 113 113
112 113 -45 44 c-41 40 -57 70 -38 70 4 0 29 -21 55 -47 l48 -48 112 112 112
112 -27 29 c-15 15 -27 31 -27 35 0 16 28 5 50 -18 l24 -26 86 85 c79 78 126
114 136 103 2 -2 -42 -49 -98 -105 l-103 -102 110 -110 c80 -80 104 -110 90
-110 -12 0 -60 40 -120 100 l-100 100 -112 -112 -113 -113 76 -76 c48 -49 74
-81 69 -89 -5 -8 -33 14 -86 66 l-78 78 -113 -112 -113 -112 112 -112 113
-113 95 95 c70 70 95 89 95 75 0 -12 -35 -55 -85 -105 l-85 -85 107 -107 c59
-60 113 -108 118 -108 6 0 24 14 40 30 16 17 32 30 37 30 17 0 7 -26 -24 -57
l-32 -33 109 -110 110 -110 112 112 113 112 -21 22 c-15 16 -17 23 -7 27 7 2
21 -2 30 -11 16 -14 22 -11 72 36 65 62 111 74 55 15 -18 -20 -46 -48 -61 -62
l-27 -26 112 -113 112 -112 112 112 113 113 -77 77 c-57 58 -72 78 -58 78 11
0 50 -30 87 -67 l68 -67 35 34 c25 24 38 31 46 23 8 -8 1 -20 -25 -44 l-37
-33 66 -66 c36 -36 65 -74 65 -85 0 -14 -19 0 -75 55 l-74 74 -113 -112 -112
-113 114 -114 113 -114 -58 -73 c-69 -86 -380 -399 -545 -548 -172 -155 -197
-177 -172 -150 l22 25 -112 112 -112 112 -112 -112 -113 -112 110 -111 c75
-75 107 -114 99 -119 -8 -5 -51 31 -121 101 l-108 108 -112 -112 -113 -112
112 -112 112 -113 64 64 c83 83 99 63 17 -22 l-60 -63 53 -53 c47 -46 76 -91
59 -91 -3 0 -34 28 -69 62 l-65 62 -112 -112 -112 -112 112 -112 113 -113 64
64 c83 83 99 63 17 -22 l-60 -63 109 -109 110 -110 112 112 113 113 -43 43
c-23 23 -42 46 -42 50 0 20 34 2 67 -33 l36 -41 41 41 c23 22 50 40 61 40 15
0 8 -11 -30 -50 l-49 -50 110 -110 c60 -60 113 -110 119 -110 5 0 58 48 117
107 l108 108 -52 52 c-40 41 -48 53 -33 53 11 0 38 -18 60 -40 l41 -40 39 40
c21 22 48 40 59 40 16 0 11 -10 -29 -50 l-49 -50 114 -115 115 -115 112 112
113 112 -45 46 c-25 25 -45 49 -45 53 0 18 28 3 67 -35 l43 -42 43 42 c39 38
67 53 67 35 0 -4 -20 -28 -45 -53 l-45 -46 110 -109 110 -110 110 110 110 109
-45 46 c-25 25 -45 49 -45 53 0 18 28 3 67 -35 l43 -42 43 42 c23 23 51 42 62
42 15 0 7 -12 -33 -53 l-52 -52 113 -113 112 -112 113 113 112 112 -55 55
c-30 30 -55 62 -55 72 0 10 2 18 4 18 2 0 31 -28 65 -62 l60 -63 113 113 113
112 -112 112 -113 113 -58 -58 c-32 -31 -61 -57 -65 -57 -20 0 -1 31 48 80
l55 54 -55 56 c-50 50 -67 80 -48 80 4 0 33 -26 65 -57 l58 -58 113 113 112
112 -110 110 -110 110 -60 -60 c-33 -33 -64 -60 -68 -60 -20 0 -1 30 50 82
l58 58 -115 115 -115 115 -112 -112 -113 -113 51 -51 c66 -66 44 -81 -23 -16
l-48 46 -47 -47 c-31 -29 -53 -43 -60 -39 -9 6 2 23 37 57 l50 49 -76 77 c-48
49 -74 81 -69 89 5 8 33 -14 86 -66 l79 -79 112 113 113 112 -89 89 c-59 59
-84 91 -76 96 8 5 44 -24 99 -79 l86 -86 113 113 112 112 -108 108 c-59 59
-113 107 -119 107 -7 0 -17 -8 -22 -17 -16 -28 -13 4 3 35 8 15 66 78 130 141
l115 115 -80 80 c-70 72 -94 106 -72 106 4 0 45 -37 90 -82 l83 -83 110 110
110 110 -110 110 -110 110 -90 -90 c-66 -65 -90 -84 -90 -70 0 11 35 54 80
100 l80 80 -113 113 c-112 112 -113 113 -132 92 -10 -11 -22 -20 -27 -20 -14
0 -9 22 9 42 16 18 12 24 -94 130 -93 93 -114 110 -126 99 -19 -15 -34 4 -18
22 8 10 -18 41 -102 125 l-113 112 -49 -50 c-44 -45 -75 -63 -75 -43 0 4 24
31 52 60 l53 53 -110 110 -110 110 -110 -110 -109 -110 27 -28 c45 -47 30 -60
-21 -17 l-29 24 -23 -24 c-12 -13 -29 -21 -37 -18 -11 4 -8 12 13 34 l28 29
-112 112 -112 112 -115 -114 -115 -114 46 -45 c25 -25 40 -47 34 -49 -7 -3
-31 14 -54 37 l-42 41 -69 -71 c-63 -63 -110 -99 -132 -99 -4 0 35 43 87 95
l95 95 -108 108 c-59 59 -107 111 -107 115 0 19 25 -1 123 -100 l107 -108 115
115 115 114 -42 43 c-34 34 -38 43 -23 43 10 0 34 -14 52 -32 l33 -32 43 42
c23 23 51 42 62 42 15 0 7 -12 -33 -53 l-52 -52 113 -113 112 -112 110 110
109 110 -52 53 c-28 29 -52 56 -52 60 0 18 25 3 74 -43z m-93 -501 c174 -17
301 -55 426 -125 175 -98 290 -244 358 -454 37 -113 46 -323 21 -450 -37 -179
-132 -373 -268 -545 -99 -125 -365 -387 -535 -529 -79 -65 -143 -122 -143
-127 0 -5 224 -8 505 -6 l504 2 3 -263 3 -262 -972 0 -973 0 0 189 0 189 63
59 c34 33 163 152 287 264 655 593 853 839 889 1103 24 174 -56 336 -199 400
-207 93 -490 44 -744 -128 -38 -25 -73 -43 -77 -39 -4 5 -44 103 -89 218 -45
116 -84 215 -87 221 -6 16 103 87 212 139 252 120 546 172 816 144z m244
-2107 c-21 -5 -40 12 -30 28 5 8 13 6 27 -7 18 -16 19 -18 3 -21z m1294 -1231
c54 -28 117 -103 137 -163 67 -204 -163 -407 -354 -312 -118 59 -183 193 -148
307 47 154 229 237 365 168z m-3024 -24 l64 -43 -50 -72 c-27 -40 -49 -74 -49
-77 0 -6 103 -75 111 -75 4 0 28 32 55 70 26 39 51 70 56 70 13 0 128 -79 128
-88 0 -11 -263 -402 -270 -402 -13 0 -130 81 -130 89 0 5 18 35 40 67 22 33
40 62 40 65 0 6 -105 79 -114 79 -2 0 -23 -29 -46 -65 -23 -36 -45 -65 -48
-65 -10 0 -132 82 -132 88 0 13 264 402 272 402 5 0 37 -19 73 -43z m2384
-479 c0 -117 -4 -235 -7 -263 l-7 -49 -74 -23 c-41 -13 -78 -20 -81 -16 -7 7
-66 81 -263 330 l-57 71 78 26 77 27 21 -27 21 -26 72 23 c71 23 71 23 71 59
0 36 1 37 63 57 34 11 68 21 75 22 9 1 12 -47 11 -211z m-1611 97 c34 -10 62
-21 62 -25 0 -4 -22 -82 -48 -173 l-49 -166 64 -17 c35 -9 66 -20 68 -24 4 -6
-31 -109 -40 -118 -3 -4 -417 118 -424 124 -6 5 31 124 38 124 3 0 34 -9 69
-19 46 -14 64 -16 68 -8 6 18 94 320 94 325 0 2 8 2 18 -1 9 -2 45 -13 80 -22z
m785 -89 c98 -35 117 -81 124 -307 l6 -179 -82 0 -81 0 -1 98 c-1 244 -16 289
-89 278 -57 -9 -60 -21 -60 -213 l0 -173 -79 0 -78 0 -7 38 c-12 75 -6 287 9
340 18 58 60 99 122 119 52 16 170 15 216 -1z"/>
<path d="M4225 5843 c2 -10 4 -44 4 -75 l1 -57 33 11 c17 6 36 14 41 18 4 5
-9 33 -30 64 -40 57 -55 69 -49 39z"/>
<path d="M3493 5548 c-11 -6 -29 -25 -38 -42 -15 -28 -16 -38 -5 -70 16 -49
66 -105 108 -123 30 -12 37 -12 65 5 58 33 60 84 9 160 -43 65 -94 91 -139 70z"/>
<path d="M5665 5210 l-110 -110 113 -113 112 -112 112 112 113 113 -110 110
c-60 60 -112 110 -115 110 -3 0 -55 -50 -115 -110z"/>
<path d="M5913 4966 l-112 -113 112 -111 112 -112 113 113 112 112 -112 112
-113 113 -112 -114z"/>
<path d="M6155 4720 l-110 -110 113 -113 112 -112 112 112 113 113 -110 110
c-60 60 -112 110 -115 110 -3 0 -55 -50 -115 -110z"/>
<path d="M3477 4482 c-59 -59 -107 -112 -107 -117 0 -6 48 -59 108 -118 l107
-107 113 113 112 112 -113 113 -112 112 -108 -108z"/>
<path d="M6402 4477 l-112 -112 110 -110 110 -110 113 113 112 112 -110 110
-110 110 -113 -113z"/>
<path d="M6647 4242 c-59 -60 -107 -113 -107 -118 0 -5 48 -58 108 -117 l107
-107 113 113 112 112 -113 113 -113 112 -107 -108z"/>
<path d="M3710 4228 l-104 -108 112 -113 112 -112 112 112 113 113 -110 110
c-60 60 -114 109 -120 109 -5 -1 -57 -51 -115 -111z"/>
<path d="M3475 3990 l-110 -110 113 -113 112 -112 110 110 110 110 -113 113
-112 112 -110 -110z"/>
<path d="M3962 3987 l-112 -112 110 -110 110 -110 113 113 112 112 -110 110
-110 110 -113 -113z"/>
<path d="M4445 3990 l-110 -110 113 -113 112 -112 112 112 113 113 -110 110
c-60 60 -112 110 -115 110 -3 0 -55 -50 -115 -110z"/>
<path d="M6397 3992 l-107 -107 113 -113 112 -112 110 110 110 110 -110 110
c-60 61 -112 110 -115 110 -3 0 -54 -48 -113 -108z"/>
<path d="M3232 3747 l-112 -112 113 -113 112 -112 113 113 112 112 -113 113
-112 112 -113 -113z"/>
<path d="M4207 3752 c-59 -59 -107 -112 -107 -117 0 -6 48 -59 108 -118 l107
-107 113 113 112 112 -113 113 -112 112 -108 -108z"/>
<path d="M6157 3752 c-59 -59 -107 -112 -107 -117 0 -6 49 -58 108 -117 l108
-107 114 114 114 114 -109 110 c-60 61 -112 111 -115 111 -3 0 -54 -48 -113
-108z"/>
<path d="M6645 3750 l-110 -110 115 -115 115 -115 110 110 110 110 -115 115
-115 115 -110 -110z"/>
<path d="M3717 3742 l-107 -107 110 -110 110 -110 110 110 110 110 -107 107
c-59 60 -110 108 -113 108 -3 0 -54 -48 -113 -108z"/>
<path d="M4693 3746 c-57 -57 -103 -107 -103 -111 0 -5 48 -57 107 -117 l108
-108 112 112 113 113 -107 107 c-59 60 -112 108 -118 108 -5 0 -56 -47 -112
-104z"/>
<path d="M3475 3500 l-110 -110 110 -110 110 -110 112 112 113 113 -107 107
c-59 60 -110 108 -113 108 -3 0 -55 -49 -115 -110z"/>
<path d="M3957 3502 l-107 -107 113 -113 112 -112 110 110 110 110 -110 110
c-60 61 -112 110 -115 110 -3 0 -54 -48 -113 -108z"/>
<path d="M4445 3499 l-109 -110 112 -112 112 -112 112 112 113 113 -110 110
c-60 60 -112 110 -115 110 -3 0 -54 -50 -115 -111z"/>
<path d="M6395 3500 l-110 -110 110 -110 c61 -60 115 -110 120 -110 6 0 59 49
120 110 l109 109 -109 111 c-60 60 -114 110 -120 110 -6 0 -60 -50 -120 -110z"/>
<path d="M3233 3258 l-113 -113 110 -110 110 -110 113 113 112 112 -110 110
-110 110 -112 -112z"/>
<path d="M3715 3260 l-110 -110 113 -113 112 -112 112 112 113 113 -110 110
c-60 60 -112 110 -115 110 -3 0 -55 -50 -115 -110z"/>
<path d="M4205 3259 l-109 -110 112 -112 112 -112 110 110 110 110 -112 112
-113 112 -110 -110z"/>
<path d="M6155 3260 l-110 -110 115 -115 115 -115 107 107 c60 59 108 112 108
118 0 10 -210 225 -220 225 -3 0 -55 -50 -115 -110z"/>
<path d="M6650 3255 l-115 -115 111 -110 110 -109 114 114 114 114 -110 111
-109 110 -115 -115z"/>
<path d="M3477 3022 c-59 -59 -107 -112 -107 -117 0 -6 49 -58 108 -117 l107
-108 107 108 c59 59 110 109 113 112 2 4 -46 56 -108 118 l-112 112 -108 -108z"/>
<path d="M6405 3010 l-110 -110 110 -110 110 -110 112 112 113 113 -107 107
c-59 60 -110 108 -113 108 -3 0 -55 -49 -115 -110z"/>
<path d="M6645 2770 l-110 -110 113 -113 112 -112 112 112 113 113 -110 110
c-60 60 -112 110 -115 110 -3 0 -55 -50 -115 -110z"/>
<path d="M3478 2531 c-60 -59 -108 -112 -108 -117 0 -5 48 -58 108 -117 l107
-107 113 113 112 112 -112 112 -113 112 -107 -108z"/>
<path d="M6402 2527 l-112 -112 113 -113 112 -112 113 113 112 112 -113 113
-112 112 -113 -113z"/>
<path d="M4207 1802 c-59 -59 -107 -112 -107 -117 0 -6 50 -59 110 -120 l110
-110 112 113 113 112 -115 115 -115 115 -108 -108z"/>
<path d="M4692 1797 c-56 -56 -102 -107 -102 -112 0 -6 50 -59 110 -120 l110
-110 113 113 112 112 -110 110 c-60 60 -114 110 -120 110 -6 0 -56 -46 -113
-103z"/>
<path d="M5185 1790 l-110 -110 110 -110 110 -110 112 112 113 113 -107 107
c-59 60 -110 108 -113 108 -3 0 -55 -49 -115 -110z"/>
<path d="M5667 1792 l-107 -107 113 -113 112 -112 110 110 110 110 -110 110
c-60 61 -112 110 -115 110 -3 0 -54 -48 -113 -108z"/>
<path d="M6513 1440 c-54 -33 -56 -81 -6 -158 35 -53 93 -84 132 -71 37 13 64
61 56 99 -9 40 -59 107 -98 130 -40 25 -44 25 -84 0z"/>
<path d="M5863 1034 c-18 -8 -33 -17 -33 -21 0 -6 78 -113 83 -113 1 0 1 34
-1 75 -2 41 -7 75 -10 74 -4 0 -22 -7 -39 -15z"/>
</g>
</svg>
