<?xml version="1.0" encoding="UTF-8"?>
<svg version="1.1" xmlns="http://www.w3.org/2000/svg" width="924" height="636">
<path d="M0 0 C11.60104228 10.89538277 16.52814621 25.59356689 17.40625 41.1171875 C18.51622554 76.83476537 3.25075424 111.11725597 -12.76904297 142.21630859 C-13.84930116 144.32172525 -14.91079391 146.43603537 -15.97265625 148.55078125 C-18.00343592 152.55946925 -20.1292748 156.50923744 -22.29443359 160.44677734 C-23.38076938 162.45277726 -24.44070123 164.47316526 -25.48291016 166.50244141 C-37.77549166 190.27123455 -37.77549166 190.27123455 -50.125 194.3125 C-52.7758843 195.07900017 -55.43338568 195.7841209 -58.109375 196.45751953 C-62.85559172 197.84897721 -67.20398477 200.0602375 -71.625 202.25 C-72.4497583 202.64968994 -73.2745166 203.04937988 -74.12426758 203.46118164 C-76.02421307 204.38285646 -77.91900121 205.3151526 -79.8125 206.25 C-78.61753906 205.98445312 -77.42257812 205.71890625 -76.19140625 205.4453125 C-66.62890625 203.3203125 -66.62890625 203.3203125 -64.22314453 202.79003906 C-62.60703381 202.4279936 -60.99338129 202.05480715 -59.38232422 201.67089844 C-55.45002305 200.74632254 -51.88545183 199.98722891 -47.8125 200.25 C-51.65354125 207.8916505 -56.54097976 214.67137927 -61.57226562 221.55273438 C-62.6943968 223.08837531 -63.80860887 224.62979525 -64.921875 226.171875 C-69.08779114 231.93750294 -73.29928758 237.66930275 -77.609375 243.328125 C-79.0105925 245.18647728 -80.37947225 247.07000119 -81.703125 248.984375 C-86.15441152 255.1563269 -90.65065809 258.1263235 -97.4375 261.48046875 C-115.73837543 271.07571941 -127.39223343 286.88620256 -135.8125 305.25 C-136.1425 305.25 -136.4725 305.25 -136.8125 305.25 C-132.16269625 248.9172884 -107.93429773 189.85470229 -83.84960938 139.42578125 C-82.61669908 136.83922368 -81.39501428 134.24744209 -80.171875 131.65625 C-66.00972218 101.76941997 -50.75300152 72.43144089 -31.8125 45.25 C-33.02760495 45.13296442 -33.02760495 45.13296442 -34.23828125 46.65625 C-45.79155105 59.47726991 -55.4639399 73.78182335 -64.8125 88.25 C-65.48539063 89.28898437 -66.15828125 90.32796875 -66.8515625 91.3984375 C-88.33327979 125.49495047 -106.66535131 162.75288262 -118.8125 201.25 C-119.15587402 202.3215332 -119.49924805 203.39306641 -119.85302734 204.49707031 C-131.64166417 241.53248459 -139.41175121 279.51324645 -142.8125 318.25 C-142.92053955 319.47928223 -142.92053955 319.47928223 -143.03076172 320.73339844 C-144.91556528 343.22105468 -143.69846641 365.4797152 -139.4765625 387.640625 C-138.703843 391.84058275 -138.19891895 395.9993916 -137.8125 400.25 C-139.1325 400.58 -140.4525 400.91 -141.8125 401.25 C-146.43081981 389.08295442 -148.58746857 376.90451218 -149.35083008 363.94628906 C-149.39575844 363.2050882 -149.4406868 362.46388733 -149.48697662 361.70022583 C-149.59689271 359.88356855 -149.70488956 358.06679532 -149.8125 356.25 C-150.6981879 356.25368717 -151.58387581 356.25737434 -152.49640274 356.26117325 C-174.08126532 356.34964256 -195.6660965 356.41576711 -217.25110245 356.45724869 C-227.68960343 356.47784383 -238.12798313 356.50590602 -248.56640625 356.55175781 C-257.66817298 356.59171903 -266.76985184 356.61745495 -275.87170386 356.62635398 C-280.6877962 356.63155303 -285.50363722 356.6437088 -290.31964874 356.67292023 C-294.86031089 356.70023625 -299.40062015 356.70841254 -303.94135666 356.70243073 C-305.60049487 356.70352377 -307.2596459 356.71138074 -308.91871262 356.7268219 C-320.7311678 356.83129316 -332.49695257 356.37611411 -341.4765625 347.703125 C-345.8125 342.98684211 -345.8125 342.98684211 -345.8125 340.25 C-346.4725 339.92 -347.1325 339.59 -347.8125 339.25 C-350.91124567 331.61439262 -351.24241174 323.90329357 -351.19345093 315.77496338 C-351.1981309 314.56585572 -351.20281087 313.35674806 -351.20763266 312.11100078 C-351.21746613 308.78572136 -351.21401198 305.4609567 -351.20467401 302.13570952 C-351.19784878 298.53789944 -351.20838165 294.94013231 -351.21661377 291.34233093 C-351.22991484 284.30757347 -351.22709008 277.27291232 -351.21837585 270.23815116 C-351.21158753 264.52050209 -351.21068753 258.80287992 -351.2139473 253.08522797 C-351.21463684 251.86239779 -351.21463684 251.86239779 -351.21534032 250.61486398 C-351.21629954 248.95856596 -351.21727218 247.30226796 -351.2182581 245.64596996 C-351.2268008 230.13665119 -351.21699434 214.62738573 -351.200857 199.1180757 C-351.18744473 185.81583242 -351.18979156 172.51366766 -351.20361328 159.21142578 C-351.21967149 143.74959323 -351.22598755 128.28780727 -351.21677649 112.82596755 C-351.21582087 111.17714803 -351.21487776 109.52832851 -351.2139473 107.87950897 C-351.21348447 107.06832629 -351.21302164 106.25714361 -351.21254479 105.42137964 C-351.20995638 99.70980495 -351.21432248 93.99825987 -351.22138596 88.28668976 C-351.22980338 81.32768082 -351.22751531 74.36877339 -351.21154372 67.40977606 C-351.2036658 63.86050857 -351.20056129 60.31141028 -351.21049118 56.76214409 C-351.22109529 52.91370129 -351.20842394 49.06553489 -351.19345093 45.21710205 C-351.20014309 44.09716551 -351.20683526 42.97722897 -351.21373022 41.82335496 C-351.1687871 35.8788718 -350.77808941 31.46288221 -347.8125 26.25 C-346.8225 25.755 -346.8225 25.755 -345.8125 25.25 C-345.379375 24.38375 -345.379375 24.38375 -344.9375 23.5 C-341.49483861 16.61467722 -335.96001923 12.72414591 -328.84036446 10.19361877 C-323.95567981 8.84236982 -319.10785893 8.9944763 -314.07369995 9.03881836 C-312.46752562 9.04071324 -312.46752562 9.04071324 -310.82890332 9.04264641 C-307.24635935 9.04904915 -303.66403329 9.06958367 -300.08154297 9.08984375 C-297.51050568 9.09691762 -294.93946541 9.10297022 -292.36842346 9.108078 C-287.54985635 9.11836586 -282.73132406 9.13238831 -277.91278107 9.15079743 C-268.43802307 9.18693721 -258.96337694 9.19827841 -249.48855591 9.20068359 C-247.99470166 9.20118827 -246.50084741 9.20170714 -245.00699317 9.20223999 C-242.74323411 9.20302737 -240.47947505 9.20379898 -238.21571597 9.20451117 C-229.68807892 9.20728686 -221.16044584 9.21274224 -212.6328125 9.22119141 C-211.46406779 9.22233665 -211.46406779 9.22233665 -210.27171208 9.22350502 C-197.65492995 9.2368102 -185.03839019 9.27957233 -172.42171548 9.33145154 C-159.44993853 9.38391529 -146.47849428 9.3980316 -133.50662529 9.37857723 C-125.51586942 9.36792324 -117.52638452 9.38773747 -109.53583868 9.44736224 C-103.4030209 9.49006921 -97.27129918 9.48004908 -91.13842583 9.45089149 C-88.63148042 9.44722884 -86.12444111 9.46055332 -83.61769676 9.49251366 C-65.88159264 9.84574713 -65.88159264 9.84574713 -51.4125843 0.73727417 C-36.61454191 -13.41872398 -15.28727619 -12.03101781 0 0 Z M-27.8125 38.25 C-26.8125 40.25 -26.8125 40.25 -26.8125 40.25 Z " fill="#42A1DB" transform="translate(628.8125,121.75)"/>
<path d="M0 0 C11.60104228 10.89538277 16.52814621 25.59356689 17.40625 41.1171875 C18.51622554 76.83476537 3.25075424 111.11725597 -12.76904297 142.21630859 C-13.84930116 144.32172525 -14.91079391 146.43603537 -15.97265625 148.55078125 C-18.00343592 152.55946925 -20.1292748 156.50923744 -22.29443359 160.44677734 C-23.38076938 162.45277726 -24.44070123 164.47316526 -25.48291016 166.50244141 C-37.77549166 190.27123455 -37.77549166 190.27123455 -50.125 194.3125 C-52.7758843 195.07900017 -55.43338568 195.7841209 -58.109375 196.45751953 C-62.85559172 197.84897721 -67.20398477 200.0602375 -71.625 202.25 C-72.4497583 202.64968994 -73.2745166 203.04937988 -74.12426758 203.46118164 C-76.02421307 204.38285646 -77.91900121 205.3151526 -79.8125 206.25 C-78.61753906 205.98445312 -77.42257812 205.71890625 -76.19140625 205.4453125 C-66.62890625 203.3203125 -66.62890625 203.3203125 -64.22314453 202.79003906 C-62.60703381 202.4279936 -60.99338129 202.05480715 -59.38232422 201.67089844 C-55.45002305 200.74632254 -51.88545183 199.98722891 -47.8125 200.25 C-51.65354125 207.8916505 -56.54097976 214.67137927 -61.57226562 221.55273438 C-62.6943968 223.08837531 -63.80860887 224.62979525 -64.921875 226.171875 C-69.08779114 231.93750294 -73.29928758 237.66930275 -77.609375 243.328125 C-79.0105925 245.18647728 -80.37947225 247.07000119 -81.703125 248.984375 C-86.15441152 255.1563269 -90.65065809 258.1263235 -97.4375 261.48046875 C-115.73837543 271.07571941 -127.39223343 286.88620256 -135.8125 305.25 C-136.1425 305.25 -136.4725 305.25 -136.8125 305.25 C-132.16269625 248.9172884 -107.93429773 189.85470229 -83.84960938 139.42578125 C-82.61669908 136.83922368 -81.39501428 134.24744209 -80.171875 131.65625 C-66.00972218 101.76941997 -50.75300152 72.43144089 -31.8125 45.25 C-33.02760495 45.13296442 -33.02760495 45.13296442 -34.23828125 46.65625 C-45.79155105 59.47726991 -55.4639399 73.78182335 -64.8125 88.25 C-65.48539063 89.28898437 -66.15828125 90.32796875 -66.8515625 91.3984375 C-88.33327979 125.49495047 -106.66535131 162.75288262 -118.8125 201.25 C-119.15587402 202.3215332 -119.49924805 203.39306641 -119.85302734 204.49707031 C-131.64166417 241.53248459 -139.41175121 279.51324645 -142.8125 318.25 C-142.88452637 319.06952148 -142.95655273 319.88904297 -143.03076172 320.73339844 C-144.91556528 343.22105468 -143.69846641 365.4797152 -139.4765625 387.640625 C-138.703843 391.84058275 -138.19891895 395.9993916 -137.8125 400.25 C-139.1325 400.58 -140.4525 400.91 -141.8125 401.25 C-150.15932351 379.26014516 -150.9828985 355.47230393 -151.04675293 332.21737671 C-151.14238758 312.67769713 -152.28627201 294.44486136 -157.02050781 275.44628906 C-157.79883096 272.30516494 -158.49994387 269.15595734 -159.1796875 265.9921875 C-159.59656337 264.09842954 -160.0156751 262.20516174 -160.4375 260.3125 C-160.70965332 259.08696411 -160.70965332 259.08696411 -160.98730469 257.83666992 C-161.91979011 253.94705042 -163.05710126 250.58407149 -164.93359375 247.04296875 C-169.54041796 238.31225898 -166.48329406 228.2162372 -163.8125 219.25 C-162.4925 219.25 -161.1725 219.25 -159.8125 219.25 C-155.94681016 226.82743628 -152.34236369 234.51098613 -148.8125 242.25 C-149.85203497 237.6188442 -151.12959639 233.23659045 -152.79296875 228.7890625 C-153.15197266 227.82226562 -153.51097656 226.85546875 -153.88085938 225.859375 C-154.62584498 223.87274673 -155.38365161 221.89087845 -156.15429688 219.9140625 C-159.32985724 211.24610826 -159.12641252 204.37929897 -156.25 195.625 C-155.98058594 194.78710938 -155.71117187 193.94921875 -155.43359375 193.0859375 C-155.12615234 192.17714844 -155.12615234 192.17714844 -154.8125 191.25 C-153.8225 191.25 -152.8325 191.25 -151.8125 191.25 C-150.51675129 193.47687976 -149.22582692 195.70633175 -147.9375 197.9375 C-147.57269531 198.56333984 -147.20789063 199.18917969 -146.83203125 199.83398438 C-144.87508803 203.23194942 -143.15642261 206.55067619 -141.8125 210.25 C-143.07424446 203.31040545 -145.26327718 196.88093815 -147.69189453 190.27954102 C-150.46265706 182.68896862 -150.89330255 178.00691401 -148.9375 170.125 C-148.71771484 169.22209229 -148.49792969 168.31918457 -148.27148438 167.38891602 C-144.1041228 150.9292269 -138.47165382 134.85577199 -131.8125 119.25 C-131.1576131 117.66250507 -130.50508636 116.07403344 -129.85546875 114.484375 C-117.71518338 85.02983772 -102.08831002 57.07028499 -82.26513672 32.0859375 C-80.92394889 30.39085641 -79.60130565 28.68329852 -78.28515625 26.96875 C-74.30564544 21.84503988 -74.30564544 21.84503988 -72.8125 20.25 C-72.1525 20.25 -71.4925 20.25 -70.8125 20.25 C-70.70010986 19.65944824 -70.58771973 19.06889648 -70.47192383 18.46044922 C-68.41513666 11.56590977 -61.26701734 7.00630244 -55.625 3.125 C-54.87468506 2.60437988 -54.12437012 2.08375977 -53.35131836 1.54736328 C-35.56542671 -10.55949756 -17.95582958 -14.13115736 0 0 Z M-27.8125 38.25 C-26.8125 40.25 -26.8125 40.25 -26.8125 40.25 Z " fill="#003B57" transform="translate(628.8125,121.75)"/>
<path d="M0 0 C3.00221784 4.50332676 4.31896025 8.57767579 4 14 C2.44306794 11.66460191 1.09799354 9.42031244 -0.1875 6.9375 C-0.73470703 5.89916016 -0.73470703 5.89916016 -1.29296875 4.83984375 C-1.52628906 4.23269531 -1.75960938 3.62554687 -2 3 C-1 1 -1 1 0 0 Z " fill="#1471AB" transform="translate(477,353)"/>
<path d="M0 0 C2.39763185 2.39763185 2.34280586 3.33273498 2.625 6.625 C2.69976562 7.44226563 2.77453125 8.25953125 2.8515625 9.1015625 C2.90054687 9.72804688 2.94953125 10.35453125 3 11 C0.49679597 8.49679597 -0.0988845 6.39651226 -1 3 C-0.67 2.01 -0.34 1.02 0 0 Z " fill="#257FB6" transform="translate(485,323)"/>
</svg>
